HIERARCHY
ROOT Hips
{
	OFFSET -0.179506 -22.333345 2.821913
	CHANNELS 6 Xposition Yposition Zposition Zrotation Yrotation Xrotation 
	JOINT LeftUpLeg
	{
		OFFSET 6.951974 -9.140623 -0.681533
		CHANNELS 3 Zrotation Yrotation Xrotation
		JOINT LeftLeg
		{
			OFFSET 3.427654 -37.519855 -0.449580
			CHANNELS 3 Zrotation Yrotation Xrotation
			JOINT LeftFoot
			{
				OFFSET -1.359570 -39.796059 -4.369333
				CHANNELS 3 Zrotation Yrotation Xrotation
				JOINT LeftToe
				{
					OFFSET 2.635814 -5.579078 11.928840
					CHANNELS 3 Zrotation Yrotation Xrotation
					End Site
					{
						OFFSET 0.000000 0.000000 0.000000
					}
				}
			}
		}
	}
	JOINT RightUpLeg
	{
		OFFSET -6.767048 -9.052170 -0.431982
		CHANNELS 3 Zrotation Yrotation Xrotation
		JOINT RightLeg
		{
			OFFSET -3.829005 -38.256897 -0.885003
			CHANNELS 3 Zrotation Yrotation Xrotation
			JOINT RightFoot
			{
				OFFSET 1.577377 -39.841461 -4.231180
				CHANNELS 3 Zrotation Yrotation Xrotation
				JOINT RightToe
				{
					OFFSET -2.537174 -4.814398 12.334795
					CHANNELS 3 Zrotation Yrotation Xrotation
					End Site
					{
						OFFSET 0.000000 0.000000 0.000000
					}
				}
			}
		}
	}
	JOINT Spine
	{
		OFFSET -0.253288 10.896323 -2.669631
		CHANNELS 3 Zrotation Yrotation Xrotation
		JOINT Spine1
		{
			OFFSET 0.548704 13.518043 0.109247
			CHANNELS 3 Zrotation Yrotation Xrotation
			JOINT Spine2
			{
				OFFSET 0.145701 5.292222 2.542457
				CHANNELS 3 Zrotation Yrotation Xrotation
				JOINT Neck
				{
					OFFSET -0.277840 21.387037 -4.285703
					CHANNELS 3 Zrotation Yrotation Xrotation
					JOINT Head
					{
						OFFSET 0.515184 6.496960 5.134897
						CHANNELS 3 Zrotation Yrotation Xrotation
						End Site
						{
							OFFSET 0.000000 0.000000 0.000000
						}
					}
				}
				JOINT LeftShoulder
				{
					OFFSET 7.884473 12.174932 -3.408961
					CHANNELS 3 Zrotation Yrotation Xrotation
					JOINT LeftArm
					{
						OFFSET 9.097692 3.046888 -0.886815
						CHANNELS 3 Zrotation Yrotation Xrotation
						JOINT LeftForeArm
						{
							OFFSET 25.961220 -1.277207 -2.745643
							CHANNELS 3 Zrotation Yrotation Xrotation
							JOINT LeftHand
							{
								OFFSET 24.923361 0.898606 -0.117091
								CHANNELS 3 Zrotation Yrotation Xrotation
								End Site
								{
									OFFSET 0.000000 0.000000 0.000000
								}
							}
						}
					}
				}
				JOINT RightShoulder
				{
					OFFSET -8.175920 11.883285 -3.861528
					CHANNELS 3 Zrotation Yrotation Xrotation
					JOINT RightArm
					{
						OFFSET -9.601238 3.255117 -0.914307
						CHANNELS 3 Zrotation Yrotation Xrotation
						JOINT RightForeArm
						{
							OFFSET -25.374195 -1.332924 -2.140099
							CHANNELS 3 Zrotation Yrotation Xrotation
							JOINT RightHand
							{
								OFFSET -25.529810 0.777228 -0.555919
								CHANNELS 3 Zrotation Yrotation Xrotation
								End Site
								{
									OFFSET 0.000000 0.000000 0.000000
								}
							}
						}
					}
				}
			}
		}
	}
}
MOTION
Frames: 15
Frame Time: 0.033333
1.752971 102.857666 -18.716667 -177.624294 40.083496 -179.336009 -6.995612 -1.968495 -1.708025 -1.364055 -2.948642 9.671237 5.298244 18.868260 -11.961292 8.317910 0.727634 -0.324029 -8.286278 -1.570759 -13.120866 1.696631 -5.996159 71.639797 4.121501 -8.303984 5.586187 5.598806 -1.045354 0.472401 -0.826525 2.994481 2.999209 4.550396 -2.325631 1.839909 -0.740127 1.836299 -2.312375 -3.227421 10.362518 0.551917 -0.977734 11.152221 -4.447257 -18.487708 7.828574 1.027109 -27.596661 4.045028 -7.997678 9.056671 -22.964151 -18.192971 14.290438 -10.298230 4.278286 15.429214 -4.876352 -1.372461 41.837567 -10.787802 11.079176 -94.512695 79.614475 -80.625218 -9.595038 13.082400 -7.670296 
1.590410 102.957169 -19.086477 -178.861466 35.527853 178.325611 -7.693702 -2.201919 0.912168 -2.090692 -5.926832 8.419909 5.293445 17.658415 -11.321073 8.119977 0.712239 -0.306559 -9.527330 -1.807762 -16.415583 1.879832 -7.213580 73.123126 3.108846 -8.629020 1.453723 5.455300 -1.085425 0.448870 -1.182087 2.621186 3.630121 4.467074 -1.244622 1.617011 -1.024273 2.104936 -2.103011 -2.844294 7.777796 1.160294 -0.897672 7.687121 -4.434352 -18.833747 9.912211 0.030087 -28.691246 4.512375 -8.599546 11.537496 -22.028917 -23.294998 15.228386 -8.744728 -0.103351 14.922506 -4.874702 -2.679605 40.633509 -8.835886 9.550655 -105.618420 74.339138 -92.802264 -9.572517 12.578418 -9.316776 
1.093667 103.008331 -19.794886 -179.087736 30.046974 176.850257 -7.820442 -2.843096 2.685759 -2.900602 -8.930410 8.720553 4.985666 15.991882 -11.412047 7.716213 0.672559 -0.235048 -9.854242 -2.428089 -18.097894 1.487904 -8.251277 68.153294 3.159886 -9.517708 -1.764903 4.799031 -1.125750 0.505121 -1.194208 2.705989 3.753761 4.174979 -0.356110 1.701384 -1.029141 2.326850 -2.005715 -2.450977 4.466964 2.042517 -0.473095 4.224579 -5.421335 -19.403736 11.644777 -0.889692 -29.843701 4.866498 -8.817157 13.985626 -21.550837 -27.560310 17.381861 -7.859492 -4.212417 14.126385 -4.553454 -3.771325 39.342129 -6.521455 7.704157 -105.301444 69.631648 -91.973771 -10.108202 11.903658 -10.139974 
1.233738 102.969315 -20.598900 -179.367198 24.689043 176.232731 -7.722020 -3.901567 3.394039 -3.631715 -11.165341 9.984939 4.407229 14.061226 -12.271773 7.155636 0.638866 -0.142503 -10.254615 -2.830092 -18.310416 0.981441 -7.542682 60.726430 3.615190 -10.064712 -4.706690 4.207689 -1.130822 0.545988 -1.386362 3.071912 3.336792 3.737260 0.427270 1.899469 -0.965297 2.661727 -2.025234 -2.308967 1.155256 2.422567 -0.083356 0.422097 -6.170300 -19.352308 13.368973 -1.513173 -31.395944 5.362798 -9.033768 16.184678 -20.883959 -30.923571 18.771172 -7.399672 -7.015121 12.824633 -3.722168 -4.868791 38.431097 -3.465496 6.268489 -104.642615 65.541670 -90.778137 -10.901131 11.909049 -11.242410 
1.628019 102.910416 -21.002991 -179.615610 19.592496 176.113021 -7.129857 -4.969353 3.248931 -4.465255 -12.331082 11.460659 3.882962 11.567376 -13.156948 6.397194 0.621744 -0.226380 -10.712533 -3.853118 -16.932333 0.286864 -6.811998 51.790066 4.121268 -10.248384 -6.609345 3.820969 -1.205700 0.350723 -1.548906 3.734381 2.863329 3.036367 1.308679 1.905722 -1.029732 3.038909 -2.299984 -2.247326 -2.136065 2.506942 0.517595 -3.035537 -7.122109 -19.561441 15.133535 -2.186528 -32.611002 6.254456 -9.076273 18.609434 -21.422109 -33.812082 20.523693 -7.502412 -9.878127 11.475958 -2.702193 -5.955217 37.482887 -0.631808 5.021892 -102.337793 62.738822 -87.688823 -11.682550 12.004027 -12.210273 
2.478773 102.938873 -21.314157 -179.747134 15.040041 176.852376 -5.914705 -5.824052 1.860703 -5.420282 -13.194608 13.449004 3.231239 8.916739 -13.679785 5.570046 0.515293 -0.246887 -10.843965 -4.833136 -14.067887 -0.365318 -5.701585 42.427590 4.478746 -10.335921 -7.606810 3.374336 -1.183886 0.156902 -1.729164 4.599253 2.504348 2.302988 2.274844 1.806386 -0.985308 3.550257 -2.493722 -2.148898 -5.150100 2.037743 0.887460 -6.153495 -7.280462 -19.620568 16.560540 -2.677613 -33.304088 7.357701 -9.203806 20.671376 -22.183701 -35.505095 21.262043 -7.804557 -11.512482 10.195156 -1.717903 -6.663140 36.366384 2.118846 3.716124 -99.002122 60.542406 -83.451296 -11.521656 12.712428 -12.471498 
3.052936 103.029610 -22.081137 -179.490695 11.263966 178.057595 -4.629686 -6.159529 0.684390 -5.854592 -13.481926 14.462736 2.628051 6.418825 -13.776399 4.411808 0.557097 -0.105857 -10.453708 -6.083489 -10.550948 -0.857956 -5.772873 33.911261 4.670889 -10.825134 -7.484402 2.980194 -1.298681 -0.118286 -1.736716 5.377743 1.916057 1.360490 3.434361 1.384945 -0.952704 4.044066 -2.448498 -1.980526 -7.884460 1.123165 1.194384 -8.866256 -7.646169 -19.647756 17.763129 -2.843449 -34.185176 8.858100 -9.521986 22.295695 -22.786764 -36.537321 21.555571 -7.893759 -12.366794 8.706246 -0.641705 -6.784175 35.246044 4.588546 1.972747 -94.945397 59.735608 -79.268053 -11.807593 13.302115 -12.221746 
3.879706 103.172066 -22.482924 -179.372802 7.683649 179.237442 -3.306961 -6.454328 -0.071826 -5.724783 -14.039864 13.985382 1.894676 4.154197 -13.592188 3.354952 0.683467 0.192349 -10.002857 -7.618158 -7.221803 -1.033447 -7.222195 27.277952 4.807835 -11.024337 -7.148377 2.826279 -1.415749 -0.283503 -1.795301 5.908095 1.138347 0.438566 4.754588 0.835278 -0.838698 4.583423 -2.334167 -2.186268 -10.465504 0.257010 1.332454 -10.833635 -7.946791 -19.445273 18.858196 -2.844911 -35.028730 10.603718 -10.005752 23.713564 -23.888243 -37.975191 21.326883 -7.824740 -13.824474 7.043785 0.414557 -6.775557 33.582850 6.149706 0.143982 -94.763569 59.518545 -79.335617 -10.666133 13.640139 -10.856692 
5.339958 103.312721 -23.043018 -179.373622 5.380344 -179.681484 -2.134473 -6.692308 -0.587293 -5.251350 -15.053570 13.564563 0.909328 3.347790 -13.808111 2.716496 0.703933 0.429751 -9.218671 -8.698123 -5.524183 -0.977351 -8.437387 23.870811 4.858776 -11.199403 -7.016376 2.585293 -1.459197 -0.306807 -1.985562 6.303033 0.497524 -0.365409 6.089023 0.486513 -0.722622 5.262692 -2.236063 -1.969311 -12.563974 -0.677076 1.713176 -12.084485 -8.348195 -19.229518 19.661667 -2.927617 -35.300361 12.105385 -10.202577 25.374905 -24.699022 -39.693734 21.934952 -6.986727 -14.604588 5.672937 1.537335 -6.619990 31.678931 7.484937 -1.513229 -94.768079 59.740695 -80.039263 -10.971858 13.861887 -10.559463 
7.318510 103.357628 -24.281420 -179.464914 3.800612 -178.694025 -0.897177 -6.267661 -0.613919 -4.763481 -15.552574 13.368871 0.027754 3.002817 -14.539963 2.418685 0.705809 0.504842 -8.869653 -9.659591 -4.979456 -0.570045 -9.873117 23.319442 5.073197 -11.251747 -6.451048 2.254215 -1.413421 -0.302128 -2.049474 6.453346 0.113425 -1.072188 7.011213 0.486316 -0.698509 5.655622 -2.460356 -1.704308 -14.310003 -1.706063 2.318429 -12.782053 -8.820979 -18.951589 20.081666 -2.774875 -35.167937 13.359254 -10.564122 26.429436 -25.264320 -41.273058 22.516226 -6.745832 -15.325782 4.536534 2.610773 -6.220990 29.191617 8.071585 -2.910620 -98.380071 60.870060 -84.202821 -11.056907 14.577834 -9.773464 
8.743972 103.247787 -24.677057 -179.540834 3.609978 -178.111835 0.004040 -5.541592 -0.629276 -4.534433 -14.954030 13.278969 -0.469605 3.348808 -16.002391 2.375354 0.715572 0.568665 -8.946008 -10.371011 -6.021526 -0.606726 -11.388037 25.142950 5.252517 -11.002031 -6.689622 1.878611 -1.317499 -0.220115 -1.997477 6.450600 -0.099591 -1.641153 7.615205 0.525510 -0.640719 5.969503 -2.504674 -1.290518 -15.143764 -2.455038 2.761226 -13.008065 -9.048725 -18.459956 20.237021 -2.543228 -34.976064 14.415177 -11.062726 27.078045 -25.565600 -42.241398 23.121940 -6.643165 -15.416031 3.562479 3.412032 -5.935441 27.225991 8.185531 -3.645455 -104.156194 61.982339 -90.351966 -11.129894 15.033707 -9.488713 
10.083036 102.866547 -25.017811 -179.625373 4.491966 -177.697437 0.774139 -4.433694 0.070110 -4.290681 -14.274200 12.974728 -0.633828 4.088113 -18.067067 2.321382 0.714896 0.661202 -9.614317 -11.038345 -8.202757 -1.028624 -13.249414 28.963048 4.958420 -11.557764 -7.065694 1.492884 -1.181772 -0.059728 -1.887929 6.211566 0.100014 -2.331297 8.013498 0.409592 -0.644331 6.205212 -2.588984 -0.705106 -15.535409 -3.321386 3.325622 -13.123479 -9.316419 -17.966904 19.988495 -2.457734 -34.357181 15.299024 -11.676801 27.747450 -25.514203 -43.197921 24.176011 -6.347329 -15.900728 2.473866 4.141121 -5.617788 25.702604 7.963189 -4.049026 -111.486736 62.920695 -98.102493 -11.858223 15.204914 -10.446515 
11.357056 102.247925 -25.208181 -179.521764 6.399446 -177.389976 1.441359 -3.165279 0.874855 -4.107778 -12.931764 13.050516 -0.491123 5.584968 -20.264135 2.628329 0.660232 0.722881 -10.778308 -11.660686 -11.689047 -2.089573 -15.228925 34.814637 4.194617 -13.735382 -7.553674 0.993908 -0.976772 0.138381 -1.675481 5.824518 0.559318 -2.923894 8.186210 0.064626 -0.679224 6.337683 -2.571644 -0.119592 -15.527257 -4.226569 3.636821 -12.890089 -9.015954 -17.592263 19.664589 -2.662747 -33.644121 15.369416 -12.368041 29.116638 -25.712127 -44.791776 25.394815 -5.508511 -16.239593 1.986471 4.452610 -5.415180 24.138536 7.677050 -4.090908 -120.103386 62.994109 -107.093544 -11.866548 15.061784 -10.870859 
12.570553 101.552002 -25.257410 -179.291185 9.172274 -176.940951 2.127594 -1.722966 1.843225 -4.069297 -11.057292 12.374783 -0.282302 7.063930 -22.002419 3.060564 0.661257 0.725284 -12.302113 -12.339698 -15.958115 -2.915420 -16.920792 40.471404 3.303658 -16.355794 -8.293641 0.381473 -0.713506 0.374722 -1.419350 5.368379 1.010617 -3.178188 8.174569 -0.316257 -0.907920 6.325865 -2.868959 0.187376 -15.485986 -4.777681 3.839258 -12.562191 -8.781339 -17.401611 18.910971 -2.973698 -31.933800 15.011302 -13.013242 30.256812 -25.784978 -46.246279 25.781727 -5.449493 -15.610712 2.392836 4.280156 -5.016551 22.266058 6.927640 -4.217664 -129.505632 62.803622 -116.230948 -10.621086 15.428331 -10.890749 
13.855535 100.949364 -25.230015 -178.971330 11.995005 -176.540301 2.975934 -0.164666 3.237443 -3.872173 -8.696735 10.639852 -0.180463 7.872498 -23.129480 3.142647 0.679208 0.823658 -13.297922 -13.171696 -19.303036 -3.483630 -18.794175 42.694122 2.716621 -17.928963 -9.302829 0.006960 -0.563029 0.593263 -1.276387 4.805151 1.327334 -3.347848 8.037629 -0.410902 -1.319107 6.217437 -3.446897 0.208025 -15.278864 -5.063392 4.631721 -12.202215 -9.352561 -17.100312 17.825881 -3.531337 -29.935031 14.490678 -13.325025 30.969142 -26.288020 -47.102372 25.743846 -5.593267 -15.054672 2.410479 4.109961 -4.695841 21.155510 6.084305 -3.540069 -137.598556 62.994851 -124.756834 -9.615103 15.509662 -12.433446 
